<svg width="26" height="24" viewBox="0 0 26 24" fill="none" xmlns="http://www.w3.org/2000/svg">
<path fill-rule="evenodd" clip-rule="evenodd" d="M10 1C6.96243 1 4.5 3.46243 4.5 6.5C4.5 9.53757 6.96243 12 10 12C13.0376 12 15.5 9.53757 15.5 6.5C15.5 3.46243 13.0376 1 10 1ZM6.5 6.5C6.5 4.567 8.067 3 10 3C11.933 3 13.5 4.567 13.5 6.5C13.5 8.433 11.933 10 10 10C8.067 10 6.5 8.433 6.5 6.5Z" fill="#737791"/>
<path d="M16.5 1C15.9477 1 15.5 1.44772 15.5 2C15.5 2.55228 15.9477 3 16.5 3C18.433 3 20 4.567 20 6.5C20 8.433 18.433 10 16.5 10C15.9477 10 15.5 10.4477 15.5 11C15.5 11.5523 15.9477 12 16.5 12C19.5376 12 22 9.53757 22 6.5C22 3.46243 19.5376 1 16.5 1Z" fill="#737791"/>
<path d="M20.0837 15.0157C20.3048 14.5096 20.8943 14.2786 21.4004 14.4997C23.5174 15.4246 25 17.538 25 20V22C25 22.5523 24.5523 23 24 23C23.4477 23 23 22.5523 23 22V20C23 18.3613 22.0145 16.9505 20.5996 16.3324C20.0935 16.1113 19.8625 15.5217 20.0837 15.0157Z" fill="#737791"/>
<path d="M7 14C3.68629 14 1 16.6863 1 20V22C1 22.5523 1.44772 23 2 23C2.55228 23 3 22.5523 3 22V20C3 17.7909 4.79086 16 7 16H13C15.2091 16 17 17.7909 17 20V22C17 22.5523 17.4477 23 18 23C18.5523 23 19 22.5523 19 22V20C19 16.6863 16.3137 14 13 14H7Z" fill="#737791"/>
<path fill-rule="evenodd" clip-rule="evenodd" d="M10 1C6.96243 1 4.5 3.46243 4.5 6.5C4.5 9.53757 6.96243 12 10 12C13.0376 12 15.5 9.53757 15.5 6.5C15.5 3.46243 13.0376 1 10 1ZM6.5 6.5C6.5 4.567 8.067 3 10 3C11.933 3 13.5 4.567 13.5 6.5C13.5 8.433 11.933 10 10 10C8.067 10 6.5 8.433 6.5 6.5Z" stroke="#737791" stroke-linecap="round"/>
<path d="M16.5 1C15.9477 1 15.5 1.44772 15.5 2C15.5 2.55228 15.9477 3 16.5 3C18.433 3 20 4.567 20 6.5C20 8.433 18.433 10 16.5 10C15.9477 10 15.5 10.4477 15.5 11C15.5 11.5523 15.9477 12 16.5 12C19.5376 12 22 9.53757 22 6.5C22 3.46243 19.5376 1 16.5 1Z" stroke="#737791" stroke-linecap="round"/>
<path d="M20.0837 15.0157C20.3048 14.5096 20.8943 14.2786 21.4004 14.4997C23.5174 15.4246 25 17.538 25 20V22C25 22.5523 24.5523 23 24 23C23.4477 23 23 22.5523 23 22V20C23 18.3613 22.0145 16.9505 20.5996 16.3324C20.0935 16.1113 19.8625 15.5217 20.0837 15.0157Z" stroke="#737791" stroke-linecap="round"/>
<path d="M7 14C3.68629 14 1 16.6863 1 20V22C1 22.5523 1.44772 23 2 23C2.55228 23 3 22.5523 3 22V20C3 17.7909 4.79086 16 7 16H13C15.2091 16 17 17.7909 17 20V22C17 22.5523 17.4477 23 18 23C18.5523 23 19 22.5523 19 22V20C19 16.6863 16.3137 14 13 14H7Z" stroke="#737791" stroke-linecap="round"/>
</svg>
