<svg width="23" height="25" viewBox="0 0 23 25" fill="none" xmlns="http://www.w3.org/2000/svg">
<path fill-rule="evenodd" clip-rule="evenodd" d="M17.25 1.13636C17.25 0.508767 16.7351 0 16.1 0C15.4649 0 14.95 0.508767 14.95 1.13636V2.27273H8.05V1.13636C8.05 0.508767 7.53513 0 6.9 0C6.26487 0 5.75 0.508767 5.75 1.13636V2.27273H3.45C1.54462 2.27273 0 3.79903 0 5.68182V21.5909C0 23.4737 1.54462 25 3.45 25H19.55C21.4554 25 23 23.4737 23 21.5909V5.68182C23 3.79903 21.4554 2.27273 19.55 2.27273H17.25V1.13636ZM20.7 9.09091V5.68182C20.7 5.05422 20.1851 4.54545 19.55 4.54545H17.25V5.68182C17.25 6.30941 16.7351 6.81818 16.1 6.81818C15.4649 6.81818 14.95 6.30941 14.95 5.68182V4.54545H8.05V5.68182C8.05 6.30941 7.53513 6.81818 6.9 6.81818C6.26487 6.81818 5.75 6.30941 5.75 5.68182V4.54545H3.45C2.81487 4.54545 2.3 5.05422 2.3 5.68182V9.09091H20.7ZM2.3 11.3636H20.7V21.5909C20.7 22.2185 20.1851 22.7273 19.55 22.7273H3.45C2.81487 22.7273 2.3 22.2185 2.3 21.5909V11.3636Z" fill="#737791"/>
</svg>
