<svg width="30" height="31" viewBox="0 0 30 31" fill="none" xmlns="http://www.w3.org/2000/svg">
<path d="M14.9997 0.917603C6.71567 0.917603 0 7.65807 0 15.9727C0 23.0329 4.8431 28.9574 11.3764 30.5846V20.5735H8.28343V15.9727H11.3764V13.9902C11.3764 8.86609 13.6869 6.491 18.6992 6.491C19.6496 6.491 21.2894 6.67829 21.9602 6.86497V11.0352C21.6062 10.9979 20.9912 10.9792 20.2274 10.9792C17.768 10.9792 16.8177 11.9145 16.8177 14.3455V15.9727H21.7172L20.8754 20.5735H16.8177V30.9176C24.2449 30.0173 30 23.6701 30 15.9727C29.9994 7.65807 23.2837 0.917603 14.9997 0.917603Z" fill="white"/>
</svg>
