<svg width="30" height="31" viewBox="0 0 30 31" fill="none" xmlns="http://www.w3.org/2000/svg">
<path d="M15.501 12.3569V18.2059H23.6291C23.2722 20.0869 22.2011 21.6796 20.5947 22.7505L25.4963 26.5537C28.3521 23.9177 29.9997 20.0458 29.9997 15.4463C29.9997 14.3754 29.9036 13.3455 29.7251 12.3571L15.501 12.3569Z" fill="white"/>
<path d="M7.03714 17.9776L5.93165 18.8238L2.01855 21.8718C4.50367 26.8008 9.5971 30.2059 15.5009 30.2059C19.5786 30.2059 22.9973 28.8603 25.4962 26.5538L20.5947 22.7505C19.2491 23.6567 17.5329 24.206 15.5009 24.206C11.5742 24.206 8.23791 21.5561 7.04332 17.9863L7.03714 17.9776Z" fill="white"/>
<path d="M2.01845 8.33408C0.988763 10.366 0.398438 12.659 0.398438 15.1028C0.398438 17.5467 0.988763 19.8397 2.01845 21.8716C2.01845 21.8853 7.0437 17.9723 7.0437 17.9723C6.74164 17.0661 6.5631 16.1051 6.5631 15.1027C6.5631 14.1003 6.74164 13.1392 7.0437 12.2331L2.01845 8.33408Z" fill="white"/>
<path d="M15.5012 6.01371C17.7255 6.01371 19.7026 6.78257 21.2815 8.26542L25.6064 3.94054C22.984 1.49666 19.5791 0 15.5012 0C9.59741 0 4.50367 3.39129 2.01855 8.33409L7.04365 12.2334C8.23808 8.66357 11.5745 6.01371 15.5012 6.01371Z" fill="white"/>
</svg>
