<svg width="30" height="31" viewBox="0 0 30 31" fill="none" xmlns="http://www.w3.org/2000/svg">
<path d="M15.0088 3.6193C19.019 3.6193 19.4938 3.63688 21.0709 3.70721C22.5366 3.77168 23.3281 4.01782 23.8558 4.22294C24.5534 4.49252 25.0576 4.82071 25.5794 5.3423C26.1071 5.86974 26.4295 6.36789 26.6992 7.06529C26.9044 7.59273 27.1507 8.38977 27.2152 9.84903C27.2855 11.4314 27.3031 11.9061 27.3031 15.9088C27.3031 19.9174 27.2855 20.3921 27.2152 21.9686C27.1507 23.4337 26.9044 24.2249 26.6992 24.7523C26.4295 25.4497 26.1012 25.9537 25.5794 26.4753C25.0518 27.0028 24.5534 27.3251 23.8558 27.5947C23.3281 27.7998 22.5308 28.0459 21.0709 28.1104C19.488 28.1807 19.0131 28.1983 15.0088 28.1983C10.9986 28.1983 10.5237 28.1807 8.94665 28.1104C7.48095 28.0459 6.68947 27.7998 6.16181 27.5947C5.46414 27.3251 4.95994 26.9969 4.43815 26.4753C3.91049 25.9479 3.58804 25.4497 3.31835 24.7523C3.11315 24.2249 2.86691 23.4279 2.80242 21.9686C2.73207 20.3863 2.71448 19.9115 2.71448 15.9088C2.71448 11.9002 2.73207 11.4255 2.80242 9.84903C2.86691 8.3839 3.11315 7.59273 3.31835 7.06529C3.58804 6.36789 3.91636 5.86388 4.43815 5.3423C4.9658 4.81485 5.46414 4.49252 6.16181 4.22294C6.68947 4.01782 7.48681 3.77168 8.94665 3.70721C10.5237 3.63688 10.9986 3.6193 15.0088 3.6193ZM15.0088 0.917603C10.9341 0.917603 10.4241 0.935184 8.82353 1.00551C7.22885 1.07584 6.1325 1.3337 5.18272 1.70291C4.19191 2.08971 3.35353 2.59957 2.52101 3.43763C1.68263 4.26982 1.17256 5.10787 0.785617 6.09244C0.416259 7.04771 0.158296 8.13776 0.0879422 9.73182C0.0175884 11.3376 0 11.8475 0 15.9205C0 19.9936 0.0175884 20.5035 0.0879422 22.1034C0.158296 23.6974 0.416259 24.7934 0.785617 25.7428C1.17256 26.7332 1.68263 27.5712 2.52101 28.4034C3.35353 29.2356 4.19191 29.7514 5.17686 30.1323C6.1325 30.5015 7.22298 30.7594 8.81767 30.8297C10.4182 30.9 10.9283 30.9176 15.0029 30.9176C19.0776 30.9176 19.5876 30.9 21.1882 30.8297C22.7829 30.7594 23.8792 30.5015 24.829 30.1323C25.814 29.7514 26.6523 29.2356 27.4849 28.4034C28.3174 27.5712 28.8333 26.7332 29.2144 25.7486C29.5837 24.7934 29.8417 23.7033 29.9121 22.1092C29.9824 20.5093 30 19.9995 30 15.9264C30 11.8533 29.9824 11.3435 29.9121 9.74355C29.8417 8.14948 29.5837 7.05357 29.2144 6.10416C28.845 5.10787 28.335 4.26982 27.4966 3.43763C26.6641 2.60543 25.8257 2.08971 24.8407 1.70877C23.8851 1.33956 22.7946 1.0817 21.1999 1.01137C19.5935 0.935184 19.0834 0.917603 15.0088 0.917603Z" fill="white"/>
<path d="M15 7.9176C10.5833 7.9176 7 11.5009 7 15.9176C7 20.3343 10.5833 23.9176 15 23.9176C19.4167 23.9176 23 20.3343 23 15.9176C23 11.5009 19.4167 7.9176 15 7.9176ZM15 21.107C12.1346 21.107 9.81065 18.783 9.81065 15.9176C9.81065 13.0522 12.1346 10.7282 15 10.7282C17.8654 10.7282 20.1894 13.0522 20.1894 15.9176C20.1894 18.783 17.8654 21.107 15 21.107Z" fill="white"/>
<path d="M25 7.9176C25 9.02509 24.101 9.9176 23 9.9176C21.8925 9.9176 21 9.01858 21 7.9176C21 6.81011 21.899 5.9176 23 5.9176C24.101 5.9176 25 6.81663 25 7.9176Z" fill="white"/>
</svg>
