<svg width="421" height="217" viewBox="0 0 421 217" fill="none" xmlns="http://www.w3.org/2000/svg">
<g clip-path="url(#clip0_12_207)">
<path d="M420.422 195.341C419.542 197.533 419.688 198.554 419.397 199.138C419.105 199.722 418.083 202.206 417.5 202.79C416.916 203.373 416.77 204.107 416.77 205.128C416.77 206.15 416.77 207.613 416.625 208.634C416.479 209.655 415.745 211.848 415.745 211.848C415.745 211.848 415.015 212.286 414.14 211.848C413.265 211.41 412.973 210.093 412.093 210.973C411.218 211.848 410.051 213.745 409.171 214.624C408.296 215.5 407.42 216.083 407.42 216.083C407.42 216.083 406.253 216.375 405.519 215.208C404.79 214.037 404.644 212.869 403.623 211.556C402.597 210.239 402.159 209.509 400.409 209.655C398.654 209.801 396.903 207.905 396.173 207.025C395.44 206.15 394.856 204.837 393.397 204.107C391.934 203.373 391.788 203.227 389.891 202.644C387.99 202.06 388.282 201.039 386.532 202.06C384.777 203.082 387.115 203.665 382.88 203.811C378.645 203.961 378.203 203.961 377.181 203.961C376.16 203.961 375.722 204.253 373.967 204.253C372.217 204.253 372.071 204.982 370.462 203.811C368.857 202.644 368.857 201.769 367.685 201.331C366.518 200.893 366.372 200.893 364.617 200.451C362.867 200.013 362.283 200.013 360.528 198.846C358.777 197.679 358.631 197.971 357.752 196.945C356.876 195.924 356.001 195.778 356.001 194.757C356.001 193.736 356.001 193.882 356.584 192.856C357.168 191.835 357.606 192.564 357.898 191.251C358.194 189.934 358.631 188.767 357.46 189.204C356.293 189.642 356.147 190.959 355.417 190.522C354.688 190.08 353.225 190.23 351.62 188.621C350.011 187.016 350.011 188.037 348.552 186.282C347.088 184.531 347.968 185.261 346.505 184.24C345.046 183.214 345.775 183.068 344.166 182.776C342.561 182.485 341.832 181.755 340.957 181.901C340.077 182.047 340.369 182.631 339.347 182.922C338.326 183.214 338.472 183.214 337.155 182.631C335.842 182.047 335.112 182.047 333.821 181.026C332.525 180.004 332.525 180.004 332.525 180.004C333.357 178.979 333.941 178.833 333.795 178.249C333.649 177.666 333.297 177.52 332.525 176.936C331.752 176.348 330.877 175.035 329.851 174.014C328.83 172.989 328.976 172.989 327.663 172.405C326.346 171.821 325.324 171.53 324.887 170.362C324.449 169.191 324.449 171.238 324.449 169.191C324.449 167.148 324.595 166.857 324.887 165.831C325.178 164.81 325.178 164.664 325.324 163.643C325.47 162.617 325.616 161.742 325.47 159.991C325.324 158.236 325.178 157.944 324.741 157.069C324.303 156.193 323.278 155.314 322.402 154.876C321.527 154.438 320.943 154.293 320.209 153.563C319.48 152.834 319.626 153.709 318.605 151.662C317.583 149.62 315.536 148.01 315.536 148.01C317.146 147.719 315.099 147.281 314.369 145.968C313.64 144.651 313.786 144.796 313.932 144.294C314.078 143.792 315.536 144.067 316.854 144.101C318.167 144.136 318.605 144.067 319.334 144.101C320.064 144.136 320.36 144.505 321.089 144.123C321.819 143.741 323.569 143.921 324.303 144.101C325.033 144.282 325.033 143.338 323.132 141.291C322.488 140.6 322.282 140.372 322.248 140.351C322.265 140.394 322.737 140.965 322.11 140.445C321.089 139.6 320.36 139.978 319.334 139.686C318.313 139.394 317.875 137.785 317.292 137.386C316.704 136.983 317 136.472 316.266 132.82C315.536 129.169 316.266 131.357 316.266 130.773C316.266 130.19 315.974 129.752 315.391 127.632C314.807 125.517 316.704 125.809 317.146 125.371C317.583 124.929 317.437 123.908 317.875 122.157C318.313 120.402 318.459 120.402 318.75 118.359C319.042 116.313 319.626 116.896 320.209 116.021C320.505 115.579 320.857 113.845 322.076 112.223C323.269 110.627 326.788 109.765 327.225 108.46C328.101 105.83 325.762 105.941 325.908 104.083C326.054 102.225 326.491 102.144 327.371 100.68C328.246 99.2215 329.268 98.492 329.705 97.9084C330.143 97.3206 329.705 96.2993 330.143 95.7157C330.585 95.1321 329.56 92.7592 329.997 91.4419C330.435 90.1288 330.804 88.4467 331.679 87.4255C332.117 86.9191 332.409 86.6359 332.495 86.3741L333.821 89.4337C335.404 90.1631 334.529 89.2878 336.425 89.4337C338.326 89.5795 338.326 89.8756 339.785 89.7297C341.248 89.5795 341.394 89.8113 343.437 89.7684C345.484 89.7254 347.672 89.7726 347.672 89.7726C347.672 89.7726 347.672 89.97 349.281 89.7726C350.886 89.5795 351.766 91.0428 353.662 92.5017C355.563 93.9607 353.37 93.523 355.563 93.9607C357.752 94.4027 359.653 93.9607 359.653 93.9607C359.653 93.9607 360.674 94.2568 361.403 95.278C362.137 96.2993 363.596 96.1534 362.137 97.9084C360.674 99.6592 360.09 99.0756 359.798 101.268C359.507 103.457 359.215 104.186 359.215 104.92C359.215 105.649 358.923 106.963 359.507 107.4C360.09 107.842 360.674 108.572 360.236 108.863C359.798 109.155 359.507 110.322 358.485 110.906C357.46 111.494 357.898 111.932 356.584 111.786C355.271 111.64 354.1 110.468 352.933 111.198C351.766 111.932 351.032 114.708 351.182 115.145C351.195 115.184 351.195 115.206 351.186 115.218C351.354 115.339 351.59 115.51 351.912 115.759C353.954 117.334 354.246 117.042 354.98 118.359C355.709 119.673 356.001 120.402 356.584 120.84C357.168 121.277 357.606 121.865 358.631 122.303C359.653 122.741 359.507 122.887 361.553 124.345C363.596 125.809 363.596 125.955 364.913 126.1C366.226 126.246 366.08 125.663 366.956 126.1C367.831 126.538 368.419 127.122 369.294 128.439C370.17 129.752 369.732 131.065 370.608 132.091C371.483 133.112 369.44 132.674 371.483 133.112C373.53 133.55 373.53 133.258 374.405 133.112C375.285 132.966 375.285 131.945 376.452 132.237C377.619 132.528 378.494 128.143 378.645 130.773C378.791 133.404 376.89 133.696 378.791 133.404C380.687 133.112 379.958 132.82 381.708 134.133C383.463 135.451 383.318 135.451 384.193 135.451C385.068 135.451 385.36 134.717 386.677 135.451C387.99 136.18 389.6 137.201 390.183 137.201C390.767 137.201 390.767 137.493 392.08 137.201C393.397 136.91 395.294 138.811 396.028 139.54C396.757 140.269 397.195 141.145 399.091 140.999C400.992 140.853 400.992 138.695 401.722 141.016C402.451 143.338 403.185 145.38 403.039 146.552C402.893 147.719 402.747 146.813 401.284 148.873C399.825 150.933 398.07 152.979 397.049 153.709C396.028 154.438 395.44 154.584 395.002 156.339C394.564 158.09 394.127 158.236 393.689 159.991C393.251 161.742 391.934 161.742 392.08 163.789C392.226 165.831 392.522 166.565 393.689 167.878C394.856 169.191 394.71 168.753 395.002 171.092C395.294 173.431 394.127 175.143 395.44 175.31C396.757 175.473 396.319 176.211 397.195 176.863C398.07 177.52 398.945 179.708 400.117 179.708C401.284 179.708 402.198 178.541 403.056 179.708C403.914 180.88 403.039 181.317 404.644 182.339C406.253 183.364 405.373 182.631 408.004 184.386C410.634 186.136 411.218 186.574 412.239 187.016C412.818 187.261 412.192 186.909 412.033 186.81C412.14 186.857 412.479 187.042 413.265 187.454C416.037 188.913 417.5 190.376 418.083 190.959C418.667 191.543 418.813 191.251 419.397 192.71C419.984 194.173 421.297 193.148 420.422 195.341Z" fill="#0B60B7"/>
<path d="M332.525 180.004C331.688 181.026 331.461 180.442 329.56 181.901C327.663 183.364 329.56 181.901 327.663 183.068C325.762 184.24 326.783 183.656 324.595 184.677C322.402 185.699 324.303 185.699 323.423 187.162C322.548 188.621 321.965 188.621 321.235 188.913C320.506 189.204 320.506 189.642 319.188 190.522C317.875 191.397 318.021 191.835 317.146 192.126C316.266 192.418 315.391 194.027 313.932 195.049C312.468 196.07 313.344 196.07 312.906 196.654C312.469 197.241 310.718 197.679 307.796 197.387C304.873 197.096 305.749 196.508 304.702 196.508C303.659 196.508 303.123 195.778 301.368 194.465C299.613 193.148 300.492 194.903 300.492 195.632C300.492 196.362 300.93 196.945 301.513 198.215C302.097 199.486 302.827 198.992 304.144 200.305C305.457 201.623 304.144 201.331 303.414 201.97C302.681 202.605 302.243 201.623 301.805 201.331C301.368 201.039 299.029 201.039 296.969 200.747C294.91 200.451 295.815 200.305 293.481 198.846C291.142 197.387 292.017 199.722 290.704 201.185C289.391 202.644 288.803 203.811 287.782 204.399C286.761 204.982 286.177 203.519 284.942 203.811C283.706 204.107 282.672 205.128 281.646 205.605C280.625 206.085 280.625 204.982 278.432 203.519C276.244 202.06 276.535 201.623 273.467 200.305C270.399 198.992 272.884 200.893 272.592 201.91C272.3 202.931 270.837 202.936 269.962 202.79C269.086 202.644 267.915 200.305 267.185 198.842C266.456 197.379 266.748 198.846 264.409 199.576C262.075 200.305 264.409 199.576 263.971 198.992C263.534 198.409 262.221 199.722 262.221 199.722C262.221 199.722 261.929 201.039 261.049 202.936C260.174 204.837 261.049 202.936 259.59 203.326C258.127 203.717 256.96 203.519 254.861 203.519C252.759 203.519 253.016 203.082 250.969 203.519C248.927 203.961 249.802 204.399 248.197 205.274C246.588 206.15 247.026 204.982 246.331 205.274C245.631 205.566 244.838 205.274 244.838 205.274C245.713 205.274 246.005 205.858 246.005 204.107C246.005 202.352 246.734 201.768 246.005 200.601C245.275 199.43 244.687 199.868 244.25 197.679C243.812 195.486 243.812 195.049 243.812 193.294C243.812 191.543 243.812 191.981 244.25 190.522C244.687 189.058 245.567 188.621 244.687 187.599C243.812 186.574 241.77 185.99 241.77 184.969C241.77 183.948 242.207 182.485 241.478 180.442C240.744 178.395 240.16 176.936 240.014 176.057C239.869 175.181 239.937 174.452 238.809 174.306C237.676 174.16 237.676 173.722 235.925 173.722C234.17 173.722 235.487 174.16 232.711 174.744C229.935 175.327 231.544 175.31 229.094 174.559C226.519 173.774 228.184 172.77 228.914 170.727C229.643 168.68 229.021 168.972 229.755 166.05C230.484 163.132 230.192 161.561 230.956 160.317C231.776 158.995 231.214 158.202 232.823 158.931C234.428 159.661 234.466 159.991 235.779 160.137C237.092 160.283 238.152 159.806 239.465 158.785C240.783 157.764 240.963 159.163 241.255 157.288C241.323 156.863 241.461 156.498 241.619 156.185C241.679 156.069 242.791 156.339 243.301 156.558C243.812 156.777 244.323 157.142 244.983 157.142C245.64 157.142 245.786 157.069 246.807 157.142C247.828 157.215 246.88 156.777 248.489 157.142C250.094 157.506 249.729 157.579 250.678 157.579C251.63 157.579 251.703 157.652 252.87 157.579C254.038 157.506 253.638 157.717 254.861 157.614C256.084 157.506 255.793 157.579 256.814 157.288C257.835 156.996 256.668 157.24 258.2 156.901C259.736 156.558 259.809 155.902 260.611 156.159C261.414 156.412 262.585 157.039 263.242 156.871C263.898 156.704 264.336 156.966 265.362 156.871C266.383 156.777 265.799 156.155 267.623 156.099C269.451 156.048 267.915 155.279 269.962 156.099C272.004 156.923 270.764 157.485 272.665 157.644C274.562 157.798 274.999 157.631 275.806 157.644C276.608 157.652 276.317 158.425 277.63 157.708C278.943 156.996 279.312 157.069 279.676 156.412C280.041 155.751 280.771 156.704 280.041 155.751L281.5 157.215C281.5 157.215 283.401 157.652 283.839 158.013C284.276 158.373 285.298 158.09 286.795 158.013C288.293 157.936 288.803 158.82 290.267 159.257C291.726 159.699 291.434 159.699 292.163 159.699C292.897 159.699 292.897 160.429 293.481 160.866C293.734 161.055 293.957 160.836 294.154 160.399C294.154 160.399 295.815 162.179 296.257 162.179C296.695 162.179 296.695 162.325 297.57 162.767C298.445 163.205 298.883 164.518 300.2 165.102C301.513 165.685 301.951 166.565 302.535 166.565H305.165C306.478 166.565 306.332 166.565 308.087 166.565C309.838 166.565 309.293 167.989 311.555 165.213C311.623 165.127 312.263 163.96 313.052 162.398C313.794 160.944 314.515 161.562 313.494 159.952C312.469 158.348 311.924 159.184 310.46 158.455C309.001 157.725 308.963 157.798 307.796 156.485C306.628 155.168 306.041 155.168 306.041 154.147C306.041 153.155 306.736 149.705 306.779 149.487C306.779 149.482 306.783 149.474 306.787 149.461C306.791 149.452 306.796 149.444 306.8 149.435C306.894 149.255 306.959 149.07 307.015 148.873C307.148 148.414 307.229 147.899 307.504 147.281C308.087 145.968 307.504 147.281 308.379 146.989C309.255 146.697 309.988 147.135 310.718 147.427C311.353 147.68 311.769 147.603 312.25 147.873H312.254C312.327 147.912 312.396 147.955 312.468 148.01C313.052 148.448 313.932 148.302 315.537 148.01C315.537 148.01 317.583 149.62 318.605 151.662C319.626 153.709 319.48 152.834 320.21 153.563C320.943 154.292 321.527 154.438 322.402 154.876C323.278 155.314 324.303 156.193 324.741 157.069C325.179 157.944 325.324 158.236 325.47 159.991C325.616 161.742 325.47 162.617 325.324 163.643C325.179 164.664 325.179 164.81 324.887 165.831C324.595 166.857 324.449 167.148 324.449 169.191C324.449 171.238 324.449 169.191 324.887 170.362C325.324 171.53 326.346 171.821 327.663 172.405C328.976 172.989 328.83 172.989 329.851 174.014C330.877 175.035 331.752 176.348 332.525 176.936C333.297 177.52 333.649 177.666 333.795 178.249C333.941 178.833 333.357 178.979 332.525 180.004Z" fill="#0BB783"/>
<path d="M307.014 148.873C306.959 149.07 306.894 149.255 306.8 149.435L307.014 148.873Z" fill="#ECECEC"/>
<path d="M313.052 162.398C312.262 163.96 311.623 165.127 311.554 165.213C309.293 167.989 309.838 166.565 308.087 166.565C306.332 166.565 306.478 166.565 305.165 166.565H302.535C301.951 166.565 301.513 165.685 300.2 165.102C298.883 164.518 298.445 163.205 297.57 162.767C296.695 162.325 296.695 162.179 296.257 162.179C295.815 162.179 294.154 160.399 294.154 160.399C294.416 159.828 294.626 158.888 294.794 158.013C295.085 156.472 296.107 156.777 296.107 156.777C296.107 156.777 296.986 155.46 297.437 153.709C297.887 151.954 298.445 151.516 298.883 150.302C299.321 149.087 299.467 149.036 300.2 148.302C300.93 147.573 301.659 149.474 302.097 150.302C302.535 151.134 303.123 151.954 303.123 151.954C303.123 151.954 304.873 151.079 306.04 150.263C306.401 150.014 306.624 149.757 306.778 149.487C306.736 149.705 306.04 153.155 306.04 154.147C306.04 155.168 306.628 155.168 307.795 156.485C308.963 157.798 309.001 157.725 310.46 158.455C311.923 159.184 312.468 158.348 313.494 159.952C314.515 161.562 313.794 160.944 313.052 162.398Z" fill="#ECECEC"/>
<path d="M313.052 162.398C312.262 163.96 311.623 165.127 311.554 165.213C309.293 167.989 309.838 166.565 308.087 166.565C306.332 166.565 306.478 166.565 305.165 166.565H302.535C301.951 166.565 301.513 165.685 300.2 165.102C298.883 164.518 298.445 163.205 297.57 162.767C296.695 162.325 296.695 162.179 296.257 162.179C295.815 162.179 294.154 160.399 294.154 160.399C294.416 159.828 294.626 158.888 294.794 158.013C295.085 156.472 296.107 156.777 296.107 156.777C296.107 156.777 296.986 155.46 297.437 153.709C297.887 151.954 298.445 151.516 298.883 150.302C299.321 149.087 299.467 149.036 300.2 148.302C300.93 147.573 301.659 149.474 302.097 150.302C302.535 151.134 303.123 151.954 303.123 151.954C303.123 151.954 304.873 151.079 306.04 150.263C306.401 150.014 306.624 149.757 306.778 149.487C306.736 149.705 306.04 153.155 306.04 154.147C306.04 155.168 306.628 155.168 307.795 156.485C308.963 157.798 309.001 157.725 310.46 158.455C311.923 159.184 312.468 158.348 313.494 159.952C314.515 161.562 313.794 160.944 313.052 162.398Z" fill="#8950FC"/>
<path d="M329.997 91.4418C329.559 92.7592 330.585 95.1321 330.143 95.7157C329.705 96.2993 330.143 97.3205 329.705 97.9084C329.268 98.492 328.246 99.2215 327.371 100.68C326.491 102.144 326.054 102.225 325.908 104.083C325.762 105.941 328.1 105.83 327.225 108.46C326.787 109.765 323.269 110.627 322.076 112.223C320.857 113.845 320.505 115.579 320.209 116.021C319.626 116.896 319.042 116.313 318.75 118.359C318.459 120.402 318.313 120.402 317.875 122.157C317.437 123.908 317.583 124.929 317.145 125.371C316.703 125.809 314.807 125.517 315.39 127.632C315.974 129.752 316.266 130.19 316.266 130.773C316.266 131.357 315.536 129.169 316.266 132.82C317 136.472 316.703 136.983 317.291 137.386C317.875 137.785 318.313 139.394 319.334 139.686C320.359 139.978 321.089 139.6 322.11 140.445C322.737 140.965 322.265 140.394 322.247 140.351C322.282 140.372 322.488 140.6 323.131 141.291C325.032 143.338 325.032 144.282 324.303 144.101C323.569 143.921 321.818 143.741 321.089 144.123C320.359 144.505 320.063 144.136 319.334 144.101C318.604 144.067 318.167 144.136 316.854 144.101C315.536 144.067 314.077 143.792 313.931 144.294C313.786 144.796 313.64 144.651 314.369 145.968C315.099 147.281 317.145 147.719 315.536 148.01C313.931 148.302 313.052 148.448 312.468 148.01C312.395 147.955 312.327 147.912 312.254 147.873H312.249C311.769 147.603 311.353 147.68 310.717 147.427C309.988 147.135 309.254 146.697 308.379 146.989C307.503 147.281 308.087 145.968 307.503 147.281C307.229 147.899 307.147 148.414 307.014 148.873L306.8 149.435C306.795 149.444 306.791 149.452 306.787 149.461C306.783 149.474 306.778 149.482 306.778 149.487C306.624 149.757 306.401 150.014 306.04 150.263C304.873 151.079 303.122 151.954 303.122 151.954C303.122 151.954 302.534 151.134 302.097 150.302C301.659 149.474 300.93 147.573 300.2 148.302C299.466 149.036 299.321 149.088 298.883 150.302C298.445 151.516 297.887 151.954 297.437 153.709C296.986 155.46 296.107 156.777 296.107 156.777C296.107 156.777 295.085 156.472 294.793 158.013C294.626 158.888 294.416 159.828 294.154 160.399C293.957 160.836 293.734 161.055 293.48 160.866C292.897 160.429 292.897 159.699 292.163 159.699C291.434 159.699 291.725 159.699 290.266 159.257C288.803 158.82 288.293 157.936 286.795 158.013C285.297 158.09 284.276 158.373 283.838 158.013C283.401 157.652 281.5 157.215 281.5 157.215L280.041 155.751C279.311 154.803 278.432 155.902 278.869 154.22C279.311 152.542 279.384 152.469 279.676 151.735C279.968 151.006 280.114 150.714 280.77 149.693C281.427 148.667 281.208 148.229 281.792 147.792C282.375 147.354 282.89 147.135 283.182 146.916C283.324 146.809 283.13 146.895 283.032 146.942C283.096 146.899 283.229 146.826 283.474 146.697C283.572 146.646 283.658 146.594 283.744 146.543C283.744 146.539 283.748 146.539 283.748 146.539C284.641 145.998 284.997 145.389 284.933 144.724C284.86 143.994 285.079 143.921 284.641 143.192C284.203 142.462 284.568 143.338 283.401 141.51C282.229 139.686 281.354 138.441 281.208 137.858C281.062 137.274 280.916 137.055 280.77 136.253C280.625 135.451 280.26 134.717 280.26 134.06C280.26 133.404 280.989 133.331 280.114 132.966C279.238 132.601 278.942 132.528 278.286 132.528C277.629 132.528 277.629 132.601 276.681 132.528C275.733 132.455 276.17 133.112 274.634 132.528C273.102 131.945 272.956 131.065 271.785 131.722C270.618 132.383 271.274 132.455 270.034 132.893C268.794 133.331 268.717 134.644 268.06 133.331C267.404 132.018 267.404 131.915 267.404 131.49C267.404 131.065 267.404 130.19 267.404 130.19C267.914 129.971 269.742 129.46 270.472 128.98C271.201 128.499 271.128 129.242 272.811 128.95C274.488 128.658 274.78 129.096 276.097 128.95C277.411 128.804 277.265 128.804 278.505 128.362C279.749 127.924 278.942 128.289 279.53 127.851C280.114 127.414 280.187 126.465 280.406 126.028C280.624 125.59 280.406 123.981 280.406 123.981C280.406 123.981 280.916 123.835 281.135 123.543C281.354 123.251 281.646 123.324 281.865 123.032C282.083 122.741 282.744 122.595 282.817 122.303C282.89 122.011 283.693 121.423 284.568 120.986C285.443 120.548 285.297 120.548 285.297 120.548C285.297 120.548 286.031 119.818 286.177 119.527C286.323 119.235 286.542 118.505 286.688 117.845C286.834 117.188 286.834 116.386 286.688 116.021C286.542 115.656 286.688 115.218 286.688 114.781C286.688 114.339 286.542 113.828 286.104 113.026C285.662 112.223 285.735 111.713 285.735 110.833C285.735 109.958 285.224 109.958 285.079 109.52C284.933 109.082 284.568 108.061 284.452 107.546C284.336 107.035 284.714 106.087 284.422 105.504C284.13 104.92 284.568 103.967 284.422 103.457C284.276 102.946 283.474 102.727 282.156 101.633C280.843 100.535 281.062 100.68 279.895 99.7321C278.724 98.7838 278.432 99.0026 276.316 98.2732C274.197 97.5437 275.66 97.9084 273.613 97.3935C271.566 96.8829 272.373 96.8829 271.201 96.664C270.034 96.4452 271.201 95.7157 271.566 95.0592C271.931 94.4026 272.665 94.2568 272.956 93.3041C273.248 92.3558 272.373 91.7722 271.639 91.2616C270.91 90.751 270.764 89.9443 270.18 89.4336C269.597 88.923 268.94 88.2665 268.206 87.7558C267.477 87.2452 266.018 87.095 263.606 86.5844C261.195 86.0738 263.314 85.9279 263.314 84.9066C263.314 83.8853 263.096 83.8853 261.414 83.0529C261.414 83.0529 262.298 82.2762 263.28 81.5467C264.263 80.8172 263.825 80.0492 264.7 79.4098C265.58 78.7704 265.872 78.337 266.456 77.7535C267.039 77.1656 267.769 77.0197 268.644 75.8482C269.524 74.6811 269.232 74.827 270.983 74.5352C272.738 74.2434 271.858 74.5352 273.467 74.5352C275.072 74.5352 274.488 74.5652 275.952 74.4064C277.411 74.2434 278.14 74.2434 279.457 73.2178C280.77 72.1966 278.724 72.9261 281.646 71.9048C284.568 70.8835 282.165 71.6859 285.735 72.2695C289.31 72.8531 289.022 70.9908 291.069 72.1622C293.116 73.3294 291.142 72.0893 292.897 72.0893C294.648 72.0893 293.335 70.4458 295.523 73.9516C297.716 77.4574 296.364 78.6245 297.823 80.6714C299.286 82.7139 298.179 83.7909 299.054 82.8727C299.93 81.9501 301.294 81.8385 301.586 80.0835C301.878 78.3327 301.221 77.6033 302.534 75.8482C303.852 74.0975 304.29 72.3425 305.748 71.613C307.212 70.8835 306.186 70.154 307.941 70.8835C309.692 71.613 310.426 72.3425 312.614 73.6598C314.807 74.9729 313.64 74.9729 316.412 75.9941C319.188 77.0197 320.029 75.638 322.222 75.5564C324.41 75.4749 323.423 77.0326 324.595 77.3887C325.762 77.7492 325.908 77.2729 327.517 79.4098C329.122 81.5467 327.663 82.096 329.997 83.4262C332.336 84.7607 331.332 84.5633 332.078 85.4172L332.494 86.3741C332.409 86.6359 332.117 86.9191 331.679 87.4254C330.804 88.4467 330.435 90.1288 329.997 91.4418Z" fill="#ECECEC"/>
<path d="M307.014 148.873C306.959 149.07 306.894 149.255 306.8 149.435L307.014 148.873Z" fill="#ECECEC"/>
<path d="M332.495 86.3741L332.079 85.4172C332.465 85.8592 332.585 86.1081 332.495 86.3741Z" fill="#ECECEC"/>
<path d="M283.749 146.539C283.749 146.539 283.744 146.539 283.744 146.543C283.658 146.594 283.573 146.646 283.474 146.697C283.229 146.826 283.096 146.899 283.032 146.942C283.131 146.895 283.324 146.809 283.182 146.916C282.89 147.135 282.375 147.354 281.792 147.792C281.208 148.229 281.427 148.667 280.771 149.693C280.114 150.714 279.968 151.006 279.676 151.735C279.385 152.469 279.312 152.542 278.87 154.22C278.432 155.902 279.312 154.803 280.041 155.751C280.771 156.704 280.041 155.751 279.676 156.412C279.312 157.069 278.943 156.996 277.63 157.708C276.316 158.425 276.608 157.652 275.806 157.644C274.999 157.631 274.561 157.798 272.665 157.644C270.764 157.485 272.004 156.923 269.961 156.099C267.915 155.279 269.451 156.048 267.623 156.099C265.799 156.155 266.383 156.777 265.361 156.871C264.336 156.966 263.898 156.704 263.242 156.871C262.585 157.039 261.414 156.412 260.611 156.159C259.809 155.902 259.736 156.558 258.2 156.901C256.668 157.24 257.835 156.996 256.814 157.288C255.792 157.579 256.084 157.507 254.861 157.614C253.638 157.717 254.037 157.507 252.87 157.579C251.703 157.652 251.63 157.579 250.678 157.579C249.729 157.579 250.094 157.507 248.489 157.142C246.88 156.777 247.828 157.215 246.807 157.142C245.786 157.069 245.64 157.142 244.983 157.142C244.323 157.142 243.812 156.777 243.301 156.558C242.791 156.339 241.679 156.069 241.619 156.185C242.156 155.125 242.932 154.666 241.915 154.438C240.598 154.147 238.663 153.636 237.35 153.49C236.032 153.344 235.886 153.67 234.573 153.233C233.26 152.795 233.625 153.451 231.578 153.014C231.055 152.902 230.643 152.816 230.287 152.709C229.244 152.4 228.643 151.937 227.013 150.263C224.824 148.01 224.532 147.573 222.923 145.822C221.318 144.067 221.172 144.213 220.585 143.629C220.001 143.046 219.272 143.192 217.958 142.316C216.641 141.437 215.766 139.892 215.182 140.445C214.611 140.986 212.925 140.467 212.856 140.45V140.445C212.831 140.239 212.856 139.999 212.989 139.686C213.427 138.66 212.256 137.639 213.062 136.18C213.869 134.717 214.744 134.425 215.62 133.258C216.495 132.091 216.933 132.383 217.225 130.773C217.521 129.169 217.225 128.293 218.542 127.632C219.855 126.976 219.709 126.976 220.293 126.246C220.881 125.517 221.464 123.616 222.194 122.887C222.923 122.157 222.923 122.157 222.923 122.157C222.923 122.157 223.142 121.059 223.674 120.256C224.202 119.454 224.897 119.745 226.94 119.891C228.986 120.037 228.111 120.183 230.372 120.694C232.638 121.204 230.956 120.986 231.325 121.423C231.69 121.865 231.763 122.084 232.638 123.032C233.513 123.981 233.222 122.886 233.805 122.668C234.389 122.449 234.685 122.157 235.633 121.059C236.582 119.964 236.436 120.037 236.655 119.016C236.873 117.99 237.311 117.042 238.809 117.115C240.302 117.188 240.087 117.48 240.817 117.699C241.551 117.917 242.353 117.845 243.739 117.48C245.129 117.115 245.275 117.553 246.331 117.626C247.382 117.699 248.927 116.24 249.875 116.313C250.823 116.386 249.875 116.75 250.021 117.407C250.167 118.063 250.386 118.287 251.188 119.454C251.995 120.621 251.553 120.11 252.433 120.767C253.308 121.423 253.235 121.573 253.527 122.668C253.819 123.762 253.527 124.054 253.746 124.736C253.965 125.418 254.329 124.491 254.84 124.345C255.355 124.2 255.865 123.397 256.157 122.814C256.449 122.23 256.668 122.157 257.179 122.449C257.689 122.741 257.908 123.032 258.419 123.689C258.934 124.345 259.371 124.783 260.144 125.298C260.92 125.809 260.903 125.444 261.851 125.736C262.804 126.028 261.851 125.736 261.706 126.976C261.56 128.216 261.633 127.559 261.633 128.804C261.633 130.044 261.778 129.242 262.002 129.752C262.22 130.263 262.731 129.971 263.461 130.336C264.19 130.7 264.992 130.773 265.872 130.773H265.928C266.756 130.756 266.906 130.404 267.404 130.19C267.404 130.19 267.404 131.065 267.404 131.49C267.404 131.915 267.404 132.018 268.061 133.331C268.717 134.644 268.794 133.331 270.034 132.893C271.275 132.456 270.618 132.383 271.785 131.722C272.957 131.065 273.103 131.945 274.634 132.528C276.171 133.112 275.733 132.455 276.681 132.528C277.63 132.601 277.63 132.528 278.286 132.528C278.943 132.528 279.239 132.601 280.114 132.966C280.989 133.331 280.26 133.404 280.26 134.06C280.26 134.717 280.625 135.451 280.771 136.253C280.916 137.055 281.062 137.274 281.208 137.858C281.354 138.441 282.23 139.686 283.401 141.51C284.568 143.338 284.203 142.462 284.641 143.192C285.079 143.921 284.86 143.994 284.933 144.724C284.997 145.389 284.641 145.998 283.749 146.539Z" fill="#833BB7"/>
<path d="M286.688 117.845C286.542 118.505 286.323 119.235 286.177 119.527C286.031 119.818 285.298 120.548 285.298 120.548C285.298 120.548 285.444 120.548 284.568 120.986C283.693 121.423 282.89 122.011 282.817 122.303C282.744 122.595 282.084 122.741 281.865 123.032C281.646 123.324 281.354 123.251 281.135 123.543C280.916 123.835 280.406 123.981 280.406 123.981C280.406 123.981 280.625 125.59 280.406 126.028C280.187 126.465 280.114 127.414 279.53 127.851C278.943 128.289 279.749 127.924 278.505 128.362C277.265 128.804 277.411 128.804 276.098 128.95C274.78 129.096 274.489 128.658 272.811 128.95C271.129 129.242 271.202 128.499 270.472 128.98C269.743 129.46 267.915 129.971 267.404 130.19C266.906 130.404 266.756 130.756 265.928 130.773H265.872C264.992 130.773 264.19 130.7 263.461 130.336C262.731 129.971 262.22 130.263 262.002 129.752C261.778 129.242 261.633 130.044 261.633 128.804C261.633 127.559 261.56 128.216 261.706 126.976C261.851 125.736 262.804 126.028 261.851 125.736C260.903 125.444 260.92 125.809 260.144 125.298C259.371 124.783 258.934 124.345 258.419 123.689C257.908 123.032 257.689 122.741 257.179 122.449C256.668 122.157 256.449 122.23 256.157 122.814C255.865 123.397 255.355 124.2 254.84 124.345C254.329 124.491 253.965 125.418 253.746 124.736C253.527 124.054 253.819 123.762 253.527 122.668C253.235 121.573 253.308 121.423 252.433 120.767C251.553 120.11 251.995 120.621 251.188 119.454C250.386 118.287 250.167 118.063 250.021 117.407C249.875 116.75 250.823 116.386 249.875 116.313C248.927 116.24 247.382 117.699 246.331 117.626C245.275 117.553 245.129 117.115 243.739 117.48C242.353 117.845 241.551 117.917 240.817 117.699C240.087 117.48 240.302 117.188 238.809 117.115C237.311 117.042 236.873 117.99 236.655 119.016C236.436 120.037 236.582 119.964 235.633 121.059C234.685 122.157 234.389 122.449 233.805 122.668C233.222 122.886 233.513 123.981 232.638 123.032C231.763 122.084 231.69 121.865 231.325 121.423C230.956 120.986 232.638 121.204 230.372 120.694C228.111 120.183 228.986 120.037 226.94 119.891C224.897 119.745 224.202 119.454 223.674 120.256C223.142 121.059 222.923 122.157 222.923 122.157C222.923 122.157 222.34 121.423 221.172 120.986C220.001 120.548 219.709 119.527 219.855 118.943C219.877 118.857 219.902 118.771 219.924 118.681V118.677C220.07 118.145 220.207 117.54 219.709 117.042C219.126 116.459 218.688 116.604 218.688 115.729C218.688 114.854 218.834 115.437 219.563 113.828C220.293 112.223 220.001 111.198 220.735 110.76C221.464 110.322 222.486 110.031 222.923 109.009C223.361 107.988 224.09 109.155 223.361 107.988C222.631 106.817 222.048 107.4 221.902 106.087C221.756 104.774 221.318 103.603 221.318 103.603C221.318 103.603 222.777 103.457 221.027 102.873C219.272 102.29 219.272 100.976 219.272 100.535C219.272 100.097 218.971 99.1743 218.971 99.1743C219.4 99.1228 219.653 99.0541 219.709 98.7838C219.782 98.4191 219.636 98.5649 219.709 97.6896C219.782 96.8099 219.49 96.737 220.147 95.4969C220.808 94.2568 220.585 94.7674 221.318 93.45C222.048 92.137 222.121 91.8452 222.413 90.8239C222.704 89.7984 221.756 90.9698 222.413 88.4853C223.069 86.0008 222.413 85.6361 223.726 84.7607C225.043 83.8853 224.459 83.8853 225.335 83.4434C226.21 83.0057 225.772 82.6409 227.231 81.9844C228.695 81.3279 229.205 80.8172 230.154 80.7443C231.106 80.6714 231.179 80.7443 232.419 80.0835C233.659 79.427 233.586 79.6458 234.685 78.8434C235.779 78.041 235.706 77.9723 236.071 77.7535C236.195 77.6805 236.423 77.5561 236.689 77.393C236.697 77.4745 236.783 78.6331 236.363 78.8434C235.925 79.0622 234.904 80.3023 234.539 80.5984C234.17 80.8902 233.513 81.0361 233.513 81.9844C233.513 82.9327 233.368 83.4434 233.878 83.9583C234.389 84.4689 235.341 85.0525 235.852 85.4172C236.363 85.782 236.436 85.8549 237.603 86.0008C238.774 86.1467 239.358 86.1467 240.233 86.0008C241.109 85.8549 241.551 85.1984 243.155 86.1124C244.765 87.0221 244.468 87.168 245.567 87.6829C246.661 88.1935 247.391 89.0689 247.974 88.5583C248.562 88.0476 248.197 87.9747 249.073 87.168C249.948 86.3655 249.729 86.5844 250.969 85.5631C252.214 84.5419 251.407 84.9066 253.381 84.1042C255.355 83.2975 254.548 82.731 255.792 83.0529C257.033 83.3704 257.397 82.804 259.225 83.0529C261.049 83.2975 259.736 82.2204 261.414 83.0529C263.096 83.8853 263.315 83.8853 263.315 84.9066C263.315 85.9279 261.195 86.0738 263.606 86.5844C266.018 87.095 267.477 87.2452 268.206 87.7558C268.94 88.2665 269.597 88.923 270.18 89.4336C270.764 89.9443 270.91 90.751 271.639 91.2616C272.373 91.7722 273.248 92.3558 272.957 93.3041C272.665 94.2568 271.931 94.4026 271.566 95.0592C271.202 95.7157 270.034 96.4452 271.202 96.664C272.373 96.8829 271.566 96.8829 273.613 97.3935C275.66 97.9084 274.197 97.5437 276.316 98.2732C278.432 99.0026 278.724 98.7838 279.895 99.7321C281.062 100.68 280.844 100.535 282.157 101.633C283.474 102.727 284.276 102.946 284.422 103.457C284.568 103.967 284.13 104.92 284.422 105.504C284.714 106.087 284.336 107.035 284.452 107.546C284.568 108.061 284.933 109.082 285.079 109.52C285.225 109.958 285.735 109.958 285.735 110.833C285.735 111.713 285.662 112.223 286.104 113.026C286.542 113.828 286.688 114.339 286.688 114.781C286.688 115.218 286.542 115.656 286.688 116.021C286.834 116.386 286.834 117.188 286.688 117.845Z" fill="#ECECEC"/>
<path d="M246.005 204.107C246.005 205.858 245.713 205.274 244.838 205.274C243.958 205.274 242.791 206.004 240.16 206.441C237.53 206.879 239.577 206.587 236.8 207.759C234.024 208.926 235.779 208.488 234.466 209.801C233.149 211.119 233.587 209.509 231.836 208.051C230.081 206.587 230.373 207.759 228.184 208.342C225.991 208.926 227.013 208.634 226.429 208.488C225.845 208.342 224.97 207.613 223.674 207.613C222.374 207.613 222.34 207.759 221.173 208.196C220.001 208.634 220.293 208.926 218.688 209.072C217.079 209.218 217.375 208.78 216.204 207.613C215.036 206.441 215.912 206.587 215.62 205.712C215.328 204.837 214.745 203.961 213.427 203.373C212.114 202.79 212.552 203.373 211.093 203.665C209.63 203.961 208.754 203.811 206.853 204.399C204.957 204.982 205.978 204.545 204.373 204.982C202.764 205.42 202.18 203.961 201.743 202.936C201.305 201.914 201.451 201.185 200.631 199.868C199.816 198.554 200.138 199.284 199.258 199.284H195.315C193.418 199.284 195.315 198.263 195.753 197.533C196.19 196.799 197.945 196.508 198.529 196.07C199.112 195.632 200.284 195.34 200.576 194.611C200.867 193.882 199.988 193.882 199.911 193.882C199.833 193.882 197.799 193.44 197.272 192.856C196.744 192.272 196.336 191.543 195.315 190.813C194.294 190.08 193.272 189.788 191.663 189.35C190.058 188.913 190.934 188.037 190.204 187.599C189.47 187.162 188.887 185.844 187.72 185.261C186.553 184.677 186.844 183.656 186.256 182.339C185.673 181.026 185.089 180.88 184.36 180.223C183.63 179.567 182.459 179.708 182.021 178.979C181.584 178.249 181.292 177.374 180.416 177.228C179.541 177.082 179.833 177.812 179.245 178.833C178.661 179.854 177.932 180.442 177.202 180.15C176.473 179.854 176.181 178.249 175.447 177.374C174.718 176.499 174.134 176.348 174.134 176.348C174.134 176.348 175.739 174.014 176.327 173.576C176.911 173.139 177.202 172.697 177.932 172.259C178.661 171.821 178.515 170.508 177.932 169.856C177.348 169.204 177.348 170.071 176.765 169.856C176.181 169.642 174.28 170.362 173.113 170.616C171.942 170.873 171.796 170.071 170.483 169.83C169.165 169.594 168.874 169.045 168.874 169.045C168.874 169.045 168.144 169.337 166.102 170.238C164.055 171.139 164.784 170.144 164.784 170.144C164.784 170.144 163.617 170.362 162.544 170.144C161.467 169.925 161.57 170.144 161.57 170.144C160.583 169.483 160.146 168.5 159.163 167.62C158.176 166.745 157.846 166.964 156.751 165.539C155.657 164.115 155.434 164.557 154.67 162.913C153.902 161.27 153.464 160.502 152.915 159.515C152.37 158.528 151.709 158.309 151.928 157.215C152.151 156.12 152.915 155.902 153.134 154.477C153.353 153.052 153.353 152.941 153.353 151.735C153.353 150.529 153.636 149.431 153.636 149.431C154.009 149.487 154.477 149.555 155.215 149.654C157.627 149.984 156.64 150.641 157.627 149.984C158.614 149.328 157.957 148.886 160.257 148.122C162.557 147.354 163.106 148.341 163.214 147.242C163.214 147.242 165.956 149.182 166.393 149.62C166.831 150.057 165.222 150.641 166.831 150.057C168.436 149.474 168.29 149.826 169.461 148.774C170.629 147.719 170.483 147.792 171.358 147.242C172.233 146.697 170.92 146.479 173.551 147.242C176.181 148.01 177.348 148.307 177.786 148.525C178.224 148.74 178.807 148.749 179.245 148.525C179.687 148.302 179.541 147.903 180.708 149.143C181.875 150.383 183.266 148.414 183.849 147.976C184.433 147.538 188.634 147.865 188.634 147.865C188.634 147.865 190.093 147.757 191.406 147.976C192.723 148.191 191.736 148.744 194.658 147.938C197.581 147.131 196.628 146.551 198.675 145.822C200.722 145.088 199.404 145.234 201.451 144.796C203.494 144.359 201.305 144.942 204.665 144.067C208.025 143.192 207.587 143.192 209.338 142.754C210.119 142.561 210.87 142.424 211.488 142.278C212.26 142.097 212.827 141.909 212.99 141.582C213.191 141.175 212.904 140.913 212.857 140.45C212.925 140.467 214.612 140.986 215.182 140.445C215.766 139.892 216.641 141.437 217.959 142.316C219.272 143.192 220.001 143.046 220.585 143.629C221.173 144.213 221.318 144.067 222.923 145.822C224.532 147.573 224.824 148.01 227.013 150.263C228.643 151.937 229.244 152.4 230.287 152.709C230.643 152.816 231.055 152.902 231.578 153.014C233.625 153.451 233.26 152.795 234.573 153.233C235.886 153.67 236.032 153.344 237.35 153.49C238.663 153.636 240.598 154.147 241.915 154.438C242.932 154.666 242.156 155.125 241.619 156.185C241.461 156.498 241.323 156.863 241.255 157.288C240.963 159.163 240.783 157.764 239.465 158.785C238.152 159.806 237.092 160.283 235.779 160.137C234.466 159.991 234.428 159.661 232.823 158.931C231.214 158.202 231.776 158.995 230.956 160.317C230.192 161.562 230.484 163.132 229.755 166.05C229.021 168.972 229.643 168.68 228.914 170.727C228.184 172.77 226.519 173.774 229.094 174.559C231.544 175.31 229.935 175.327 232.711 174.744C235.487 174.16 234.17 173.722 235.925 173.722C237.676 173.722 237.676 174.16 238.809 174.306C239.937 174.452 239.869 175.181 240.014 176.057C240.16 176.936 240.744 178.395 241.478 180.442C242.207 182.485 241.77 183.948 241.77 184.969C241.77 185.99 243.812 186.574 244.687 187.599C245.567 188.621 244.687 189.058 244.25 190.522C243.812 191.981 243.812 191.543 243.812 193.294C243.812 195.049 243.812 195.486 244.25 197.679C244.687 199.868 245.275 199.43 246.005 200.601C246.734 201.768 246.005 202.352 246.005 204.107Z" fill="#6993FF"/>
<path d="M222.923 109.009C222.485 110.031 221.464 110.322 220.735 110.76C220.001 111.198 220.293 112.223 219.563 113.828C218.834 115.437 218.688 114.854 218.688 115.729C218.688 116.604 219.126 116.459 219.709 117.042C220.207 117.54 220.07 118.145 219.924 118.677V118.681C219.902 118.771 219.877 118.857 219.855 118.943C219.709 119.527 220.001 120.548 221.172 120.986C222.34 121.423 222.923 122.157 222.923 122.157C222.923 122.157 222.923 122.157 222.194 122.886C221.464 123.616 220.881 125.517 220.293 126.246C219.709 126.976 219.855 126.976 218.542 127.632C217.225 128.293 217.521 129.169 217.225 130.773C216.933 132.383 216.495 132.091 215.62 133.258C214.744 134.425 213.869 134.717 213.062 136.18C212.256 137.639 213.427 138.66 212.989 139.686C212.856 139.999 212.831 140.239 212.856 140.445V140.45C212.904 140.913 213.191 141.175 212.989 141.582C212.826 141.909 212.26 142.097 211.488 142.278C210.87 142.424 210.119 142.561 209.338 142.754C207.587 143.192 208.025 143.192 204.665 144.067C201.305 144.942 203.493 144.359 201.451 144.796C199.404 145.234 200.721 145.088 198.675 145.822C196.628 146.551 197.58 147.131 194.658 147.938C191.736 148.744 192.723 148.191 191.406 147.976C190.092 147.757 188.634 147.865 188.634 147.865C188.634 147.865 184.433 147.538 183.849 147.976C183.265 148.414 181.875 150.383 180.708 149.143C179.541 147.903 179.687 148.302 179.245 148.525C178.807 148.749 178.224 148.74 177.786 148.525C177.348 148.307 176.181 148.01 173.551 147.242C170.92 146.479 172.233 146.697 171.358 147.242C170.482 147.792 170.628 147.719 169.461 148.774C168.29 149.826 168.436 149.474 166.831 150.057C165.222 150.641 166.831 150.057 166.393 149.62C165.955 149.182 163.213 147.242 163.213 147.242C163.325 146.148 163.432 145.492 163.213 144.397C163.029 143.479 163.153 142.866 162.875 142.05C162.823 141.891 162.754 141.728 162.669 141.548C162.119 140.454 161.351 139.857 160.257 138.948C159.163 138.042 158.176 137.931 156.64 137.605C155.108 137.274 154.889 137.274 153.464 136.725C152.04 136.18 151.928 136.837 150.945 135.193C149.959 133.55 150.396 133.661 149.409 132.782C148.422 131.906 146.985 130.7 146.551 130.155C146.122 129.606 143.822 128.4 143.385 128.512C142.947 128.619 142.835 129.495 142.398 129.714C141.96 129.932 141.63 130.482 140.866 130.482C140.098 130.482 139.004 130.812 138.017 130.044C137.03 129.276 136.811 129.276 136.48 128.4C136.326 127.98 136.343 128.014 136.356 128.04C136.347 128.006 136.296 127.881 136.154 127.525C135.717 126.427 135.828 124.504 135.828 124.504C135.996 124.508 136.266 124.56 136.811 124.676C138.347 125.006 138.673 125.663 139.111 125.225C139.548 124.783 139.986 123.363 139.986 122.921C139.986 122.483 139.66 122.814 139.986 120.951C140.317 119.089 139.66 119.634 140.535 117.772C141.411 115.909 141.085 115.472 141.853 114.159C142.617 112.841 141.741 113.502 142.947 112.077C144.153 110.653 144.041 111.198 145.028 109.666C146.015 108.134 145.135 109.009 147.002 107.035C148.864 105.066 148.645 105.066 149.74 104.079C150.834 103.092 151.272 102.766 151.821 101.56C152.37 100.354 151.821 101.23 152.696 98.7108C153.572 96.192 153.572 95.9731 154.451 94.3297C155.327 92.6862 154.889 92.137 156.314 91.3689C157.738 90.6008 157.519 90.6008 158.395 90.1631C159.27 89.7254 159.382 89.9442 159.819 89.2877C160.257 88.6312 160.476 87.9747 160.695 87.4254C160.793 87.1765 161.047 87.0178 161.227 86.8333C161.192 86.9019 160.768 87.7129 161.231 88.4123C161.716 89.1418 161.935 89.3607 162.008 90.0172C162.081 90.678 162.081 91.7722 162.008 92.064C161.935 92.3558 161.973 93.0853 162.063 93.45C162.154 93.8148 162.227 94.6215 162.45 95.1321C162.669 95.6427 162.814 96.2263 163.471 96.5911C164.127 96.9558 164.346 97.0287 164.638 96.5911C164.93 96.1534 164.492 96.4452 165.368 95.7157C166.247 94.9862 166.174 94.1838 166.977 93.9607C167.779 93.7418 166.758 93.2312 168.655 93.8148C170.555 94.4026 170.993 94.2567 171.431 94.8403C171.869 95.4239 171.431 96.664 172.525 95.8616C173.624 95.0592 173.769 94.6944 174.28 94.4026C174.791 94.1108 174.791 93.7418 175.666 94.0336C176.546 94.3297 176.327 93.7418 177.348 94.9133C178.369 96.0804 178.515 96.5181 179.245 96.5911C179.979 96.664 180.343 96.4452 181.146 97.3205C181.948 98.2002 181.875 97.5437 182.167 98.6379C182.459 99.7321 182.896 100.826 183.047 101.414C183.193 101.998 182.459 102.29 183.047 102.29C183.63 102.29 186.407 103.019 186.407 103.019C186.407 103.019 186.11 103.676 186.917 103.967C187.72 104.259 187.501 104.555 188.376 104.993C189.251 105.431 188.887 106.16 189.839 105.576C190.788 104.993 189.839 104.993 191.663 104.628C193.491 104.259 193.122 104.628 194.585 104.259C196.044 103.894 196.671 103.894 197.271 103.238C197.872 102.581 196.778 102.654 198.675 101.852C200.575 101.049 200.648 100.462 201.743 100.097C202.837 99.7321 203.056 99.2944 203.789 99.0026C204.519 98.7108 206.197 98.2002 207.149 97.9813C208.098 97.7625 207.587 97.6166 209.119 97.8354C210.655 98.0543 209.046 97.6896 211.676 98.2731C214.307 98.8567 213.869 98.7838 215.912 99.0026H215.929C217.958 99.2215 217.74 99.2944 218.469 99.2214C218.658 99.2043 218.825 99.1871 218.971 99.1742C218.971 99.1742 219.271 100.097 219.271 100.535C219.271 100.976 219.271 102.29 221.027 102.873C222.777 103.457 221.318 103.603 221.318 103.603C221.318 103.603 221.756 104.774 221.902 106.087C222.048 107.4 222.631 106.817 223.361 107.988C224.09 109.155 223.361 107.988 222.923 109.009Z" fill="#00AB9A"/>
<path d="M238.701 73.8786C238.774 75.1187 238.483 75.2646 238.118 76.0671C237.873 76.5991 237.212 77.0712 236.689 77.393C236.423 77.556 236.195 77.6805 236.071 77.7534C235.706 77.9723 235.779 78.0409 234.685 78.8434C233.587 79.6458 233.659 79.4269 232.419 80.0835C231.179 80.7443 231.106 80.6713 230.154 80.7443C229.205 80.8172 228.695 81.3279 227.232 81.9844C225.773 82.6409 226.21 83.0057 225.335 83.4433C224.46 83.8853 225.043 83.8853 223.726 84.7607C222.413 85.636 223.069 86.0008 222.413 88.4853C221.756 90.9698 222.704 89.7983 222.413 90.8239C222.121 91.8452 222.048 92.137 221.318 93.45C220.585 94.7674 220.808 94.2567 220.147 95.4968C219.49 96.7369 219.782 96.8099 219.709 97.6895C219.636 98.5649 219.782 98.419 219.709 98.7838C219.654 99.0541 219.4 99.1227 218.971 99.1742C218.825 99.1871 218.658 99.2043 218.469 99.2214C217.74 99.2944 217.959 99.2214 215.929 99.0026H215.912C213.869 98.7838 214.307 98.8567 211.677 98.2731C209.046 97.6896 210.655 98.0543 209.119 97.8354C207.587 97.6166 208.098 97.7625 207.15 97.9813C206.197 98.2002 204.519 98.7108 203.79 99.0026C203.056 99.2944 202.837 99.7321 201.743 100.097C200.649 100.462 200.576 101.049 198.675 101.852C196.778 102.654 197.872 102.581 197.272 103.238C196.671 103.894 196.044 103.894 194.585 104.259C193.122 104.628 193.491 104.259 191.663 104.628C189.839 104.993 190.788 104.993 189.839 105.576C188.887 106.16 189.252 105.431 188.376 104.993C187.501 104.555 187.72 104.259 186.917 103.967C186.111 103.676 186.407 103.019 186.407 103.019C186.407 103.019 183.63 102.29 183.047 102.29C182.459 102.29 183.193 101.998 183.047 101.414C182.897 100.826 182.459 99.7321 182.167 98.6379C181.875 97.5437 181.948 98.2002 181.146 97.3205C180.343 96.4452 179.979 96.664 179.245 96.591C178.515 96.5181 178.37 96.0804 177.348 94.9133C176.327 93.7418 176.546 94.3297 175.666 94.0336C174.791 93.7418 174.791 94.1108 174.28 94.4026C173.77 94.6944 173.624 95.0591 172.525 95.8616C171.431 96.664 171.869 95.4239 171.431 94.8403C170.993 94.2567 170.556 94.4026 168.655 93.8148C166.758 93.2312 167.779 93.7418 166.977 93.9606C166.174 94.1838 166.247 94.9862 165.368 95.7157C164.492 96.4451 164.93 96.1534 164.638 96.591C164.346 97.0287 164.128 96.9558 163.471 96.591C162.815 96.2263 162.669 95.6427 162.45 95.1321C162.227 94.6215 162.154 93.8148 162.064 93.45C161.974 93.0853 161.935 92.3558 162.008 92.064C162.081 91.7722 162.081 90.678 162.008 90.0172C161.935 89.3607 161.716 89.1418 161.231 88.4123C160.768 87.7129 161.193 86.9019 161.227 86.8332C161.231 86.829 161.231 86.829 161.231 86.8247C161.45 86.5972 161.553 86.3183 161.133 85.7819C160.691 85.2155 160.253 84.8293 159.901 84.4603C159.631 84.1857 159.412 83.9153 159.27 83.5892C158.944 82.8254 158.833 82.7139 158.502 81.4008C158.176 80.0835 157.846 79.3197 157.846 78.1139C157.846 76.9081 158.395 75.9212 158.395 75.9212C158.395 75.9212 158.395 75.595 157.627 74.7154C156.859 73.84 156.095 73.2908 155.327 73.0719C154.559 72.8531 154.014 72.8531 152.696 72.0893C151.383 71.3212 151.491 71.7589 150.178 69.8966C148.864 68.0342 148.646 68.1415 147.659 67.0473C146.672 65.9531 146.341 65.6227 146.56 64.6358C146.779 63.6531 146.56 62.9923 147.547 62.6662C148.534 62.3358 147.659 62.7734 149.409 62.6662C151.164 62.5546 150.946 63.1039 152.589 61.3488C154.233 59.5981 154.559 58.6112 154.559 58.285C154.559 57.9546 152.04 56.9677 155.434 57.8431C158.833 58.7227 158.502 59.4865 160.695 60.4735C162.888 61.4604 166.393 60.9111 167.269 61.13C168.144 61.3488 168.801 61.572 170.225 61.4604C171.65 61.3488 171.761 60.8039 173.074 60.2546C174.392 59.7054 174.28 58.5039 176.58 59.5981C178.88 60.6923 178.224 59.8169 179.867 61.2416C181.511 62.6662 180.416 62.9923 182.386 63.3227C184.36 63.6531 186.553 63.4343 187.535 63.2154C188.522 62.9923 188.853 62.4473 189.728 63.4343C190.603 64.4169 189.947 65.5154 191.153 64.5285C192.358 63.5415 192.466 63.2154 192.247 61.8981C192.028 60.585 191.59 60.1473 192.796 58.3923C194.002 56.6416 194.109 56.3112 195.534 55.2169C196.958 54.1184 197.508 54.1184 197.177 53.1358C197.164 53.0972 197.151 53.0586 197.139 53.0242H197.143C197.143 53.0242 197.581 53.5005 198.091 53.9382C198.602 54.3759 199.112 54.303 199.258 54.5947C199.404 54.8865 200.94 55.4701 202.326 55.9808C203.717 56.4957 204.081 56.5686 205.03 57.0063C205.978 57.444 206.051 57.7358 207.077 58.6111C208.098 59.4865 208.317 59.1947 208.973 59.332C209.63 59.4651 210.14 59.1218 210.655 59.3406C211.166 59.5595 212.26 59.2677 213.646 59.3406C215.036 59.4136 215.109 59.5595 216.058 59.7826C217.006 60.0014 217.521 59.7826 218.323 60.2932C219.126 60.8039 218.834 60.5121 220.293 61.4776C221.756 62.4388 221.173 61.7522 221.975 61.5333C222.777 61.3145 222.559 61.7522 224.387 62.2628C226.21 62.7735 225.043 62.9193 225.335 63.7261C225.627 64.5285 225.918 64.6744 226.502 65.6227C227.086 66.571 227.45 66.571 228.184 67.2318C228.914 67.8884 229.205 67.5966 230.445 67.8884C231.69 68.1801 231.544 68.1072 232.128 68.7637C232.711 69.4203 232.93 69.4932 233.587 69.8579C234.243 70.227 235.196 70.2999 236.217 70.4458C237.238 70.5917 237.676 71.2482 238.41 72.0507C239.139 72.8531 238.629 72.6342 238.701 73.8786Z" fill="#ECECEC"/>
<path d="M162.45 171.787C162.227 172.332 162.227 172.989 161.463 174.181C160.695 175.374 160.364 175.73 159.098 177.044C157.833 178.361 159.051 177.812 159.098 178.64C159.146 179.468 158.176 178.468 157.408 178.64C156.64 178.811 157.408 180.223 157.738 180.88C158.064 181.536 158.721 181.755 159.051 182.523C159.382 183.287 157.957 183.068 155.983 183.068C154.014 183.068 154.996 182.961 152.808 182.304C150.615 181.648 151.49 181.867 149.409 181.206C147.328 180.549 148.204 180.987 147.221 180.768C146.234 180.549 146.341 180.112 144.917 178.627C143.496 177.138 143.934 178.627 143.934 178.627C143.934 178.627 142.179 178.03 140.647 178.627C139.111 179.223 140.209 178.249 138.673 177.155C137.141 176.057 138.017 176.168 137.467 176.168C136.922 176.168 135.06 176.825 133.743 176.606C132.43 176.387 133.086 176.499 131.443 177.262C129.799 178.03 130.237 177.812 129.58 178.627C128.924 179.442 127.499 177.7 125.963 176.936C124.431 176.168 125.199 175.838 124.32 175.293C123.444 174.744 123.337 174.855 122.02 174.306C120.707 173.757 121.694 175.074 120.05 177.481C118.407 179.893 119.501 178.03 118.733 179.03C117.969 180.034 117.969 180.004 116.763 181.206C115.557 182.412 115.008 183.068 114.463 183.068C113.914 183.068 113.802 181.974 112.378 180.442C110.957 178.906 111.614 180.549 110.734 180.442C109.859 180.33 108.108 179.893 108.108 179.455C108.108 179.017 107.34 178.03 106.572 178.361C105.808 178.687 106.572 178.361 105.697 178.687C104.821 179.017 104.272 179.455 103.285 179.455C102.302 179.455 102.191 178.799 101.642 178.361C101.097 177.919 100.547 177.044 98.7923 175.838C97.0416 174.632 97.4793 175.074 96.8227 175.074C96.8227 175.074 96.2735 173.319 96.8227 173.1C97.372 172.881 97.9169 173.431 98.3546 172.225C98.7923 171.019 98.9039 168.281 99.3416 167.402C99.7792 166.526 100.436 165.213 101.204 164.883C101.972 164.557 101.204 164.994 102.847 164.334C104.491 163.677 104.491 163.896 105.478 162.913C106.465 161.926 106.684 161.489 107.228 160.283C107.778 159.077 108.108 158.42 108.653 156.996C109.202 155.571 109.421 155.79 109.64 154.584C109.859 153.379 109.752 153.709 110.189 152.615C110.627 151.516 110.734 150.435 110.734 150.263C110.734 150.092 111.176 149.109 111.176 148.01V145.603C111.176 145.054 111.176 145.161 111.176 143.737C111.176 142.814 110.962 141.707 110.811 141.038C110.923 141.029 111.078 141.016 111.283 140.999C112.601 140.892 113.146 141.548 113.914 141.767C114.682 141.986 114.515 141.432 115.72 142.149C116.926 142.87 118.076 141.767 118.514 142.535C118.952 143.299 117.969 143.299 119.282 144.067C120.595 144.835 120.707 145.161 121.801 145.929C122.899 146.697 125.418 148.01 125.418 148.341C125.418 148.667 125.199 149.435 126.182 148.886C127.169 148.341 126.182 148.229 127.607 147.903C129.031 147.573 130.018 148.01 131.443 148.341C132.867 148.667 133.962 149.765 134.399 149.765C134.837 149.765 134.511 150.752 136.154 149.765C137.798 148.779 138.785 148.667 140.098 148.229C141.411 147.792 142.072 147.684 143.496 147.573C144.917 147.465 143.604 148.834 145.796 148.504C147.985 148.178 147.491 148.448 148.04 149.654C148.59 150.86 147.985 148.89 150.611 149.109H150.615C152.422 149.259 152.782 149.306 153.614 149.426C153.619 149.426 153.627 149.431 153.636 149.431C153.636 149.431 153.353 150.529 153.353 151.735C153.353 152.941 153.353 153.052 153.134 154.477C152.915 155.902 152.151 156.12 151.928 157.215C151.709 158.309 152.37 158.528 152.915 159.515C153.464 160.502 153.902 161.27 154.67 162.913C155.434 164.557 155.657 164.115 156.751 165.539C157.845 166.964 158.176 166.745 159.163 167.62C160.145 168.5 160.583 169.483 161.57 170.144C162.557 170.8 162.669 171.238 162.45 171.787Z" fill="#FFA800"/>
<path d="M110.812 141.038C110.19 141.08 110.735 140.999 110.735 140.999C110.735 140.999 110.722 140.784 110.67 140.467C110.687 140.531 110.743 140.741 110.812 141.038Z" fill="#ECECEC"/>
<path d="M163.214 147.242C163.106 148.341 162.557 147.354 160.257 148.122C157.957 148.886 158.614 149.328 157.627 149.984C156.64 150.641 157.627 149.984 155.215 149.654C154.477 149.555 154.009 149.487 153.636 149.431C153.627 149.431 153.619 149.427 153.615 149.427C152.782 149.306 152.422 149.259 150.615 149.109H150.611C147.985 148.89 148.59 150.86 148.041 149.654C147.491 148.448 147.985 148.178 145.796 148.504C143.604 148.834 144.917 147.465 143.496 147.573C142.072 147.684 141.411 147.792 140.098 148.229C138.785 148.667 137.798 148.779 136.154 149.765C134.511 150.752 134.837 149.765 134.399 149.765C133.962 149.765 132.867 148.667 131.443 148.341C130.018 148.01 129.031 147.573 127.607 147.903C126.182 148.229 127.169 148.341 126.182 148.886C125.199 149.435 125.418 148.667 125.418 148.341C125.418 148.01 122.899 146.697 121.801 145.929C120.707 145.161 120.595 144.835 119.282 144.067C117.969 143.299 118.952 143.299 118.514 142.535C118.076 141.767 116.926 142.87 115.72 142.149C114.515 141.432 114.682 141.986 113.914 141.767C113.146 141.548 112.601 140.892 111.284 140.999C111.078 141.016 110.923 141.029 110.812 141.038C110.743 140.741 110.687 140.531 110.67 140.467C110.67 140.458 110.666 140.454 110.666 140.445C110.567 139.879 110.344 138.991 109.859 138.369C109.091 137.386 109.859 137.055 109.859 136.18C109.859 135.305 109.314 134.318 109.091 133.769C108.872 133.219 108.653 132.344 108.653 131.906C108.653 131.469 107.889 130.812 107.34 130.374C106.791 129.932 106.902 129.276 106.791 128.512C106.684 127.744 106.791 127.632 106.791 127.632C107.005 127.641 107.254 127.607 107.559 127.525C108.765 127.195 108.546 128.07 109.314 126.757C110.078 125.444 109.859 125.444 110.846 124.564C111.833 123.689 111.502 123.032 113.039 123.14C114.57 123.251 115.446 123.8 116.652 123.582C117.857 123.363 118.188 122.814 118.844 122.376C119.501 121.938 119.389 121.938 120.05 121.389C120.707 120.84 121.363 120.295 122.131 120.621C122.899 120.951 122.676 121.277 123.663 121.496C124.65 121.719 124.65 122.045 125.637 121.719C126.624 121.389 126.075 121.277 127.607 121.608C129.143 121.938 129.581 121.827 130.237 122.264C130.894 122.702 131.005 122.376 131.662 122.702C132.026 122.886 132.288 122.968 132.601 123.11C132.855 123.234 133.133 123.397 133.524 123.689C134.399 124.345 133.743 124.783 134.837 124.676C135.545 124.603 135.524 124.487 135.828 124.504C135.828 124.504 135.717 126.427 136.154 127.525C136.296 127.881 136.347 128.006 136.356 128.04C136.343 128.014 136.326 127.98 136.48 128.4C136.811 129.276 137.03 129.276 138.017 130.044C139.004 130.812 140.098 130.482 140.866 130.482C141.63 130.482 141.96 129.932 142.398 129.714C142.835 129.495 142.947 128.619 143.385 128.512C143.822 128.4 146.122 129.606 146.552 130.155C146.985 130.7 148.422 131.906 149.409 132.782C150.396 133.661 149.959 133.55 150.946 135.193C151.928 136.837 152.04 136.18 153.464 136.725C154.889 137.274 155.108 137.274 156.64 137.605C158.176 137.931 159.163 138.042 160.257 138.948C161.351 139.858 162.119 140.454 162.669 141.548C162.754 141.728 162.823 141.891 162.875 142.05C163.154 142.866 163.029 143.479 163.214 144.397C163.432 145.492 163.325 146.148 163.214 147.242Z" fill="#ECECEC"/>
<path d="M195.534 55.217C194.109 56.3112 194.002 56.6416 192.796 58.3923C191.59 60.1474 192.028 60.585 192.247 61.8981C192.466 63.2154 192.358 63.5416 191.153 64.5285C189.947 65.5154 190.603 64.4169 189.728 63.4343C188.853 62.4473 188.522 62.9923 187.535 63.2154C186.553 63.4343 184.36 63.6531 182.386 63.3227C180.416 62.9923 181.511 62.6662 179.867 61.2416C178.224 59.8169 178.88 60.6923 176.58 59.5981C174.28 58.5039 174.392 59.7054 173.074 60.2546C171.761 60.8039 171.65 61.3488 170.225 61.4604C168.801 61.572 168.144 61.3488 167.269 61.13C166.393 60.9112 162.888 61.4604 160.695 60.4735C158.502 59.4865 158.833 58.7227 155.434 57.8431C152.04 56.9677 154.559 57.9546 154.559 58.285C154.559 58.6112 154.233 59.5981 152.589 61.3488C150.946 63.1039 151.164 62.5546 149.409 62.6662C147.659 62.7735 148.534 62.3358 147.547 62.6662C146.56 62.9923 146.779 63.6531 146.56 64.6358C146.341 65.6227 146.672 65.9531 147.659 67.0473C148.646 68.1415 148.864 68.0343 150.178 69.8966C151.491 71.7589 151.383 71.3212 152.696 72.0893C154.014 72.8531 154.559 72.8531 155.327 73.0719C156.095 73.2908 156.859 73.84 157.627 74.7154C158.395 75.5951 158.395 75.9212 158.395 75.9212C158.395 75.9212 157.846 76.9081 157.846 78.1139C157.846 79.3197 158.176 80.0835 158.502 81.4008C158.833 82.7139 158.944 82.8254 159.27 83.5892C159.412 83.9154 159.631 84.1857 159.901 84.4603C160.253 84.8293 160.691 85.2155 161.133 85.782C161.553 86.3183 161.45 86.5972 161.231 86.8247C161.231 86.829 161.231 86.829 161.227 86.8333C161.047 87.0178 160.794 87.1765 160.695 87.4254C160.476 87.9747 160.257 88.6312 159.819 89.2877C159.382 89.9443 159.27 89.7254 158.395 90.1631C157.519 90.6008 157.738 90.6008 156.314 91.3689C154.889 92.137 155.327 92.6862 154.451 94.3297C153.572 95.9731 153.572 96.192 152.696 98.7108C151.821 101.23 152.37 100.354 151.821 101.56C151.272 102.766 150.834 103.092 149.74 104.079C148.646 105.066 148.864 105.066 147.002 107.035C145.136 109.009 146.015 108.134 145.028 109.666C144.041 111.198 144.153 110.653 142.947 112.077C141.741 113.502 142.617 112.841 141.853 114.159C141.085 115.472 141.411 115.909 140.536 117.772C139.66 119.634 140.317 119.089 139.986 120.951C139.66 122.814 139.986 122.483 139.986 122.921C139.986 123.363 139.549 124.783 139.111 125.225C138.673 125.663 138.347 125.006 136.811 124.676C136.266 124.56 135.996 124.508 135.828 124.504C135.524 124.487 135.545 124.603 134.837 124.676C133.743 124.783 134.399 124.345 133.524 123.689C133.134 123.397 132.855 123.234 132.601 123.11C132.288 122.968 132.026 122.886 131.662 122.702C131.005 122.376 130.894 122.702 130.237 122.264C129.581 121.827 129.143 121.938 127.607 121.608C126.075 121.277 126.624 121.389 125.637 121.719C124.65 122.045 124.65 121.719 123.663 121.496C122.676 121.277 122.899 120.951 122.131 120.621C121.363 120.295 120.707 120.84 120.05 121.389C119.389 121.938 119.501 121.938 118.844 122.376C118.188 122.814 117.858 123.363 116.652 123.582C115.446 123.8 114.571 123.251 113.039 123.14C111.502 123.032 111.833 123.689 110.846 124.564C109.859 125.444 110.078 125.444 109.314 126.757C108.546 128.07 108.765 127.195 107.559 127.525C107.254 127.607 107.005 127.641 106.791 127.632V127.628C106.156 127.607 105.804 127.22 105.147 126.645C104.272 125.882 104.053 126.208 103.942 125.882C103.834 125.551 103.616 124.676 103.397 124.238C103.178 123.8 103.066 122.157 102.71 121.719C102.35 121.277 102.629 119.964 102.702 119.308C102.775 118.651 102.303 118.977 101.753 118.321C101.204 117.664 101.753 118.321 102.41 117.008C103.066 115.69 102.41 115.69 102.41 115.034C102.41 114.377 102.191 113.94 101.861 112.404C101.534 110.872 101.534 108.679 101.097 108.134C100.659 107.585 99.818 105.611 99.5262 104.92C99.2344 104.225 98.5007 103.967 98.2089 103.714C97.9171 103.457 98.5007 102.873 98.6122 102.654C98.7195 102.435 98.5393 101.852 98.0287 101.157C97.518 100.462 97.7712 101.122 97.1533 101.633C96.5311 102.144 96.5654 101.706 96.441 101.633C96.3165 101.56 96.4925 100.938 96.4195 100.68C96.3466 100.427 96.4925 99.7321 96.4195 99.5519C96.3466 99.3673 95.8359 97.7239 95.8359 97.7239C95.8359 97.7239 96.604 97.0674 97.2606 96.5181C97.9171 95.9731 98.3548 95.6427 99.3417 95.0935C100.329 94.5485 100.329 94.3297 101.316 93.6689C102.303 93.0123 102.847 92.5747 104.272 92.2442C105.697 91.9181 106.134 91.3689 106.903 90.9312C107.671 90.4935 108.216 89.837 108.653 89.1804C109.091 88.5196 110.846 87.4254 111.833 86.7689C112.82 86.1124 113.365 86.1124 113.584 85.782C113.802 85.4515 114.789 85.1254 115.339 84.9066C115.884 84.6877 116.544 83.9196 117.201 83.482C117.858 83.0443 119.282 81.0704 119.939 80.6327C120.595 80.195 119.831 79.7574 119.831 79.3197C119.831 78.882 119.613 77.0197 119.171 75.7023C118.733 74.3893 118.844 74.1704 118.188 73.4023C117.527 72.6342 117.858 72.0893 117.527 70.1154C117.201 68.1415 117.42 68.1415 117.42 67.7038C117.42 67.2662 117.201 65.6227 116.433 64.8546C116.201 64.6229 116.107 64.5328 116.081 64.5156C116.12 64.5671 116.227 64.7001 115.995 64.5285C115.558 64.1981 116.652 62.9923 117.089 62.6662C117.527 62.3358 118.407 62.2285 118.844 62.2285C119.282 62.2285 119.282 61.6792 119.613 61.2416C119.939 60.8039 120.05 59.9285 118.733 58.5039C118.6 58.358 118.484 58.2293 118.381 58.1134C118.377 58.1091 118.372 58.1048 118.372 58.1005C117.506 57.0921 117.836 57.1179 117.639 56.53C117.42 55.8735 118.407 55.1054 118.407 54.7793C118.407 54.4489 117.969 53.8996 116.871 53.3546C115.776 52.8054 116.433 52.5866 116.652 52.1489C116.871 51.7112 117.42 50.7242 118.188 50.1836C118.952 49.6429 119.501 50.0677 120.595 50.175C121.393 50.2565 122.53 49.7588 123.346 49.3554C123.359 49.3511 123.371 49.3425 123.38 49.3382C123.676 49.1924 123.925 49.055 124.101 48.9692C124.762 48.6431 128.268 48.9692 128.268 48.9692C128.268 48.9692 128.268 48.2054 128.486 47.6562C128.705 47.1069 129.469 46.3431 130.018 45.9011C130.568 45.4634 131.005 44.6996 131.331 44.1504C131.662 43.6011 131.992 42.9446 132.537 42.2881C133.086 41.6316 133.524 40.975 133.524 40.975V38.7823C133.524 38.7823 133.524 36.2635 133.524 35.9331C133.524 35.6027 132.868 33.1954 132.756 32.865C132.752 32.8564 132.752 32.8478 132.743 32.8392V32.8349C132.747 32.8349 132.769 32.8092 132.975 31.878C133.198 30.8954 133.636 31.7708 135.168 31.7708C136.704 31.7708 136.373 31.6592 137.36 30.8954C138.347 30.1273 138.017 30.7838 140.317 31.0027C142.617 31.2215 141.085 31.6592 141.523 31.878C141.96 32.0969 143.166 32.0969 143.823 32.32C144.479 32.5389 144.041 31.4404 144.698 31.0027C145.359 30.565 145.578 30.565 145.578 30.565C145.578 30.565 146.56 30.7838 147.002 30.6766C147.44 30.565 147.002 29.3592 147.328 29.3592C147.659 29.3592 148.315 28.81 149.191 28.1406C150.066 27.4712 150.396 28.265 151.602 28.1534C152.808 28.0462 152.37 28.5911 152.808 29.4708C153.246 30.3462 154.233 29.9085 154.67 30.1273C155.108 30.3461 154.121 30.6766 153.572 31.6592C153.027 32.6461 154.34 32.2085 155.657 32.7577C156.97 33.3027 157.077 33.1954 158.064 33.7275C159.051 34.2596 159.708 34.0708 160.476 34.8389C161.244 35.6027 162.119 35.3838 162.888 35.7142C163.651 36.0446 163.87 36.3708 164.857 37.0273C165.844 37.6881 167.05 37.7954 167.599 38.3446C168.144 38.8896 168.693 37.1389 168.256 35.6027C167.818 34.0708 168.474 34.5085 169.019 34.2896C169.569 34.0708 170.882 34.4012 172.199 33.9592C173.512 33.5215 173.405 33.6331 174.061 34.8689C174.718 36.1047 175.048 34.62 175.705 34.8689C176.361 35.1178 176.799 34.9461 177.786 35.6027C178.773 36.2635 178.773 36.0446 179.648 35.8258C180.524 35.6027 179.648 35.8258 180.635 35.0577C181.622 34.2896 180.961 36.0446 181.292 37.2461C181.622 38.4519 181.948 37.6881 182.935 37.9069C183.922 38.1258 183.373 38.7823 183.373 39.3316C183.373 39.8765 183.592 40.2069 184.141 40.975C184.69 41.7388 185.892 41.52 187.098 41.8504C188.303 42.1765 188.853 42.1765 189.616 42.7258C190.384 43.275 189.728 43.7127 189.509 44.4808C189.29 45.2446 189.509 45.3562 190.822 46.8881C192.14 48.4243 191.153 47.7677 192.028 48.9392C192.903 50.1149 194.221 50.7242 195.645 51.8185C197.01 52.8698 196.868 52.2089 197.139 53.0242C197.151 53.0586 197.164 53.0972 197.177 53.1358C197.508 54.1185 196.958 54.1184 195.534 55.217Z" fill="#F64E60"/>
<path d="M132.757 32.8656L132.708 32.8964L132.744 32.8392C132.753 32.848 132.753 32.8568 132.757 32.8656Z" fill="#ECECEC"/>
<path d="M133.524 35.9331C133.524 36.2635 133.524 38.7823 133.524 38.7823V40.975C133.524 40.975 133.086 41.6316 132.537 42.2881C131.992 42.9446 131.662 43.6011 131.331 44.1504C131.005 44.6996 130.568 45.4635 130.018 45.9011C129.469 46.3431 128.705 47.1069 128.486 47.6562C128.268 48.2054 128.268 48.9692 128.268 48.9692C128.268 48.9692 124.762 48.6431 124.101 48.9692C123.925 49.055 123.676 49.1924 123.38 49.3383C123.372 49.3425 123.359 49.3511 123.346 49.3554C122.53 49.7588 121.393 50.2565 120.595 50.175C119.501 50.0677 118.952 49.6429 118.188 50.1836C117.42 50.7243 116.871 51.7112 116.652 52.1489C116.433 52.5866 115.776 52.8054 116.871 53.3547C117.969 53.8996 118.407 54.4489 118.407 54.7793C118.407 55.1054 117.42 55.8735 117.639 56.53C117.836 57.1179 117.506 57.0921 118.372 58.1005C118.372 58.1048 118.377 58.1091 118.381 58.1134C118.484 58.2293 118.6 58.358 118.733 58.5039C120.05 59.9285 119.939 60.8039 119.613 61.2416C119.282 61.6793 119.282 62.2285 118.844 62.2285C118.407 62.2285 117.527 62.3358 117.089 62.6662C116.652 62.9923 115.558 64.1981 115.995 64.5285C116.227 64.7001 116.12 64.5671 116.081 64.5156C116.107 64.5328 116.201 64.6229 116.433 64.8546C117.201 65.6227 117.42 67.2662 117.42 67.7039C117.42 68.1415 117.201 68.1415 117.527 70.1154C117.858 72.0893 117.527 72.6342 118.188 73.4023C118.844 74.1704 118.733 74.3893 119.171 75.7023C119.613 77.0197 119.831 78.882 119.831 79.3197C119.831 79.7574 120.595 80.195 119.939 80.6327C119.282 81.0704 117.858 83.0443 117.201 83.482C116.545 83.9197 115.884 84.6877 115.339 84.9066C114.789 85.1254 113.803 85.4516 113.584 85.782C113.365 86.1124 112.82 86.1124 111.833 86.7689C110.846 87.4254 109.091 88.5196 108.653 89.1805C108.216 89.837 107.671 90.4935 106.903 90.9312C106.134 91.3689 105.697 91.9181 104.272 92.2442C102.848 92.5747 102.303 93.0123 101.316 93.6689C100.329 94.3297 100.329 94.5485 99.3418 95.0935C98.3548 95.6427 97.9172 95.9732 97.2606 96.5181C96.6041 97.0674 95.836 97.7239 95.836 97.7239C95.836 97.7239 95.6172 98.492 95.6172 96.6297C95.6172 94.7674 96.0548 94.9862 96.0548 92.7935C96.0548 90.6008 95.9476 90.1631 95.7287 88.85C95.5099 87.537 94.4114 87.7558 93.8664 84.795C93.3172 81.8385 92.8795 79.9762 92.3302 78.2212C91.781 76.4704 91.781 76.4704 90.7983 75.0458C89.8114 73.6212 89.8114 72.7458 88.6056 71.6473C87.3998 70.5531 86.9622 70.4458 85.8679 70.0038C84.7694 69.5662 83.7868 69.3473 82.3622 68.6908C80.9375 68.0343 80.4999 67.5966 79.2941 67.485C78.0883 67.3777 78.3071 67.485 76.7752 67.7039C75.2391 67.9227 72.5014 68.0343 72.0637 68.0343C71.626 68.0343 68.1202 66.3908 68.1202 64.8546C68.1202 63.3227 67.7898 62.885 67.7898 61.0227C67.7898 59.1604 67.3822 58.5039 66.7643 56.4227C66.1464 54.3373 65.271 52.917 64.8333 52.2561C64.3913 51.5996 65.816 50.8315 63.6275 50.7243C61.4348 50.6127 59.6841 50.9431 59.0233 50.9431C58.3667 50.9431 54.2044 46.6692 54.0929 45.575C53.9856 44.4808 52.9987 42.8373 52.0117 42.0692C51.0291 41.3012 50.5871 41.0823 49.0552 41.0823C47.5233 41.0823 45.7683 41.4127 45.0002 41.3012C44.2364 41.1939 43.2494 41.6316 42.7002 41.6316C42.1509 41.6316 42.3741 41.3012 41.0567 41.3012C39.7437 41.3012 37.7698 41.7388 37.0017 41.52C36.2379 41.3012 34.5944 41.1939 34.4829 40.2069C34.3756 39.22 34.7017 38.8896 33.7191 38.3446C32.7321 37.7954 31.3075 36.8084 30.5394 36.92C29.7713 37.0273 31.5263 36.92 29.2264 37.2461C26.9264 37.5765 26.7032 37.907 26.2655 37.1389C25.8279 36.3708 26.3771 35.9331 25.1713 35.4954C23.9656 35.0577 24.1844 33.9592 22.6525 35.2766C21.1163 36.5896 20.8975 37.7954 20.0221 37.2461C19.1467 36.7012 18.9279 36.5896 18.4902 35.3838C18.0482 34.1823 17.2844 32.865 17.2844 32.2085C17.2844 31.5519 17.1729 33.5215 17.2844 31.1143C17.3917 28.7027 17.5033 28.265 17.3917 27.2781C17.2844 26.2911 16.8467 25.7462 16.2975 25.3042C15.7482 24.8665 15.2033 24.3216 14.5425 23.6607C13.8859 23.0042 13.1221 22.8969 12.0236 21.91C10.9294 20.9231 9.28594 19.7173 7.97289 19.4984C6.65554 19.2796 5.88745 19.4984 4.79323 18.8419C3.69902 18.1854 3.8063 18.1854 2.82365 17.7477C1.83672 17.31 0.00873733 17.2714 0.00873733 17.2714C0.00873733 17.2714 -0.428948 12.4526 5.26954 5.00334V2.18842H7.31207L10.1613 0L12.5729 1.42462L14.9844 0L17.9409 1.09421C17.9409 1.09421 19.1467 0.982646 19.4728 1.09421C19.8033 1.20149 19.8033 2.51883 20.5713 2.62611C21.3351 2.73768 26.2655 3.3942 26.2655 3.3942L27.5829 3.06379L30.4321 4.1623L32.4017 5.25651H33.9379L36.2722 5.18356C36.2722 5.18356 37.2978 3.72461 37.4051 3.65167C37.5166 3.57872 38.4993 2.66473 38.8683 2.772C39.233 2.88357 39.778 2.59178 39.9968 2.44589C40.2157 2.29999 40.2543 1.82369 40.6577 1.93525C41.0567 2.04253 42.005 2.81062 42.1896 2.99085C42.3741 3.17536 43.1035 4.0164 43.3567 4.0164C43.6142 4.0164 44.1634 4.63431 44.82 4.67293C45.4765 4.70726 45.6224 4.52704 46.1716 4.78021C46.7166 5.03767 48.2142 6.38934 48.2142 6.38934C48.2142 6.38934 48.9093 6.97292 49.4586 7.30333C50.0035 7.62945 50.261 7.92124 50.5528 8.03281C50.8446 8.14008 49.9306 7.95986 51.3938 8.39754C52.8528 8.83523 52.7798 8.98112 53.475 8.90818C54.1658 8.83523 53.7281 8.14008 55.1184 8.90818C56.5044 9.67627 56.9421 9.60332 57.0151 10.3714C57.088 11.1352 56.2126 11.0279 57.3798 12.2337C58.5513 13.4395 58.4783 13.7313 59.2807 14.2419C60.0831 14.7526 59.83 15.0057 60.4479 14.8985C61.0701 14.7869 60.9242 14.9714 61.4005 14.4951C61.8725 14.0231 62.1643 13.6927 62.9324 14.0574C63.7005 14.4221 64.3913 14.8985 64.7604 15.9927C65.1251 17.0912 65.3053 17.8936 65.9275 18.1124C66.5497 18.3313 68.6652 18.696 69.1029 18.1124C69.5406 17.5289 69.6521 16.4303 70.4202 16.2115C71.184 15.9927 71.7333 15.9927 72.9391 16.5419C74.1448 17.0912 73.926 17.5289 75.6767 17.9665C77.4318 18.4042 78.7448 18.5115 80.0622 19.4984C81.3752 20.4854 81.2637 20.8158 82.2506 21.2535C83.2375 21.6912 84.5506 22.2404 85.2114 21.2535C85.8679 20.2665 84.6622 18.7346 85.8679 18.7346C87.0737 18.7346 86.9622 18.0738 87.5114 18.9535C88.0564 19.8288 87.9491 20.5969 88.2752 21.2535C88.6056 21.91 88.6056 22.7854 89.6998 23.5535C90.7983 24.3216 90.6868 24.7592 91.3433 24.8665C92.0041 24.9781 91.781 24.4288 92.5491 24.8665C93.3172 25.3042 93.4244 25.4158 94.0853 26.0723C94.7418 26.7288 94.8491 27.7158 95.7287 28.265C96.6041 28.81 96.4925 29.0331 97.4795 29.3592C98.4664 29.6896 98.9041 30.0157 100.329 30.2346C101.753 30.4534 101.972 31.1143 103.066 31.4404C104.165 31.7708 103.397 31.7708 104.603 31.9896C105.808 32.2085 106.465 32.7577 106.903 32.5389C107.34 32.32 106.246 32.4273 106.903 31.4404C107.559 30.4534 107.559 29.3592 107.889 29.3592C108.216 29.3592 108.108 30.7838 108.872 31.3331C109.64 31.8781 109.421 32.4187 111.721 32.5861C114.021 32.7577 114.571 32.4187 115.008 32.5861C115.446 32.7577 114.682 34.2896 115.446 32.7577C116.214 31.2215 116.544 31.8781 116.326 30.7838C116.107 29.6896 115.472 28.4838 116.39 28.5911C117.308 28.7027 118.407 30.2346 119.72 30.7838C121.033 31.3331 120.926 32.0969 121.801 32.0969C122.676 32.0969 124.32 34.2167 124.762 33.4314C125.2 32.6461 123.663 32.6461 125.2 32.6461C126.731 32.6461 128.924 33.6073 128.924 33.6073C128.924 33.6073 128.594 34.0193 129.469 33.6073C130.349 33.1954 129.799 32.865 130.894 32.865C131.954 32.865 132.602 32.5603 132.743 32.835V32.8392L132.709 32.895L132.756 32.865C132.868 33.1954 133.524 35.6027 133.524 35.9331Z" fill="#ECECEC"/>
<path d="M132.757 32.8656L132.708 32.8964L132.744 32.8392C132.753 32.848 132.753 32.8568 132.757 32.8656Z" fill="#ECECEC"/>
</g>
<defs>
<clipPath id="clip0_12_207">
<rect width="420.714" height="216.118" fill="white"/>
</clipPath>
</defs>
</svg>
